<?xml version="1.0" encoding="utf-8" standalone="no"?>
<!DOCTYPE svg PUBLIC "-//W3C//DTD SVG 1.1//EN"
  "http://www.w3.org/Graphics/SVG/1.1/DTD/svg11.dtd">
<svg xmlns:xlink="http://www.w3.org/1999/xlink" width="549.595361pt" height="325.986375pt" viewBox="0 0 549.595361 325.986375" xmlns="http://www.w3.org/2000/svg" version="1.1">
 <metadata>
  <rdf:RDF xmlns:dc="http://purl.org/dc/elements/1.1/" xmlns:cc="http://creativecommons.org/ns#" xmlns:rdf="http://www.w3.org/1999/02/22-rdf-syntax-ns#">
   <cc:Work>
    <dc:type rdf:resource="http://purl.org/dc/dcmitype/StillImage"/>
    <dc:date>2025-11-16T22:01:35.354454</dc:date>
    <dc:format>image/svg+xml</dc:format>
    <dc:creator>
     <cc:Agent>
      <dc:title>Matplotlib v3.6.3, https://matplotlib.org/</dc:title>
     </cc:Agent>
    </dc:creator>
   </cc:Work>
  </rdf:RDF>
 </metadata>
 <defs>
  <style type="text/css">*{stroke-linejoin: round; stroke-linecap: butt}</style>
 </defs>
 <g id="figure_1">
  <g id="patch_1">
   <path d="M 0 325.986375 
L 549.595361 325.986375 
L 549.595361 0 
L 0 0 
z
" style="fill: #ffffff"/>
  </g>
  <g id="axes_1">
   <g id="patch_2">
    <path d="M 62.86875 288.430125 
L 419.98875 288.430125 
L 419.98875 22.318125 
L 62.86875 22.318125 
z
" style="fill: #ffffff"/>
   </g>
   <g id="matplotlib.axis_1">
    <g id="xtick_1">
     <g id="line2d_1">
      <path d="M 79.101477 288.430125 
L 79.101477 22.318125 
" clip-path="url(#p5b6ad76462)" style="fill: none; stroke: #b0b0b0; stroke-width: 0.8; stroke-linecap: square"/>
     </g>
     <g id="line2d_2">
      <defs>
       <path id="m16151aa004" d="M 0 0 
L 0 3.5 
" style="stroke: #000000; stroke-width: 0.8"/>
      </defs>
      <g>
       <use xlink:href="#m16151aa004" x="79.101477" y="288.430125" style="stroke: #000000; stroke-width: 0.8"/>
      </g>
     </g>
     <g id="text_1">
      <!-- 0.0 -->
      <g transform="translate(71.149915 303.028562) scale(0.1 -0.1)">
       <defs>
        <path id="DejaVuSans-30" d="M 2034 4250 
Q 1547 4250 1301 3770 
Q 1056 3291 1056 2328 
Q 1056 1369 1301 889 
Q 1547 409 2034 409 
Q 2525 409 2770 889 
Q 3016 1369 3016 2328 
Q 3016 3291 2770 3770 
Q 2525 4250 2034 4250 
z
M 2034 4750 
Q 2819 4750 3233 4129 
Q 3647 3509 3647 2328 
Q 3647 1150 3233 529 
Q 2819 -91 2034 -91 
Q 1250 -91 836 529 
Q 422 1150 422 2328 
Q 422 3509 836 4129 
Q 1250 4750 2034 4750 
z
" transform="scale(0.015625)"/>
        <path id="DejaVuSans-2e" d="M 684 794 
L 1344 794 
L 1344 0 
L 684 0 
L 684 794 
z
" transform="scale(0.015625)"/>
       </defs>
       <use xlink:href="#DejaVuSans-30"/>
       <use xlink:href="#DejaVuSans-2e" x="63.623047"/>
       <use xlink:href="#DejaVuSans-30" x="95.410156"/>
      </g>
     </g>
    </g>
    <g id="xtick_2">
     <g id="line2d_3">
      <path d="M 144.032386 288.430125 
L 144.032386 22.318125 
" clip-path="url(#p5b6ad76462)" style="fill: none; stroke: #b0b0b0; stroke-width: 0.8; stroke-linecap: square"/>
     </g>
     <g id="line2d_4">
      <g>
       <use xlink:href="#m16151aa004" x="144.032386" y="288.430125" style="stroke: #000000; stroke-width: 0.8"/>
      </g>
     </g>
     <g id="text_2">
      <!-- 0.2 -->
      <g transform="translate(136.080824 303.028562) scale(0.1 -0.1)">
       <defs>
        <path id="DejaVuSans-32" d="M 1228 531 
L 3431 531 
L 3431 0 
L 469 0 
L 469 531 
Q 828 903 1448 1529 
Q 2069 2156 2228 2338 
Q 2531 2678 2651 2914 
Q 2772 3150 2772 3378 
Q 2772 3750 2511 3984 
Q 2250 4219 1831 4219 
Q 1534 4219 1204 4116 
Q 875 4013 500 3803 
L 500 4441 
Q 881 4594 1212 4672 
Q 1544 4750 1819 4750 
Q 2544 4750 2975 4387 
Q 3406 4025 3406 3419 
Q 3406 3131 3298 2873 
Q 3191 2616 2906 2266 
Q 2828 2175 2409 1742 
Q 1991 1309 1228 531 
z
" transform="scale(0.015625)"/>
       </defs>
       <use xlink:href="#DejaVuSans-30"/>
       <use xlink:href="#DejaVuSans-2e" x="63.623047"/>
       <use xlink:href="#DejaVuSans-32" x="95.410156"/>
      </g>
     </g>
    </g>
    <g id="xtick_3">
     <g id="line2d_5">
      <path d="M 208.963295 288.430125 
L 208.963295 22.318125 
" clip-path="url(#p5b6ad76462)" style="fill: none; stroke: #b0b0b0; stroke-width: 0.8; stroke-linecap: square"/>
     </g>
     <g id="line2d_6">
      <g>
       <use xlink:href="#m16151aa004" x="208.963295" y="288.430125" style="stroke: #000000; stroke-width: 0.8"/>
      </g>
     </g>
     <g id="text_3">
      <!-- 0.4 -->
      <g transform="translate(201.011733 303.028562) scale(0.1 -0.1)">
       <defs>
        <path id="DejaVuSans-34" d="M 2419 4116 
L 825 1625 
L 2419 1625 
L 2419 4116 
z
M 2253 4666 
L 3047 4666 
L 3047 1625 
L 3713 1625 
L 3713 1100 
L 3047 1100 
L 3047 0 
L 2419 0 
L 2419 1100 
L 313 1100 
L 313 1709 
L 2253 4666 
z
" transform="scale(0.015625)"/>
       </defs>
       <use xlink:href="#DejaVuSans-30"/>
       <use xlink:href="#DejaVuSans-2e" x="63.623047"/>
       <use xlink:href="#DejaVuSans-34" x="95.410156"/>
      </g>
     </g>
    </g>
    <g id="xtick_4">
     <g id="line2d_7">
      <path d="M 273.894205 288.430125 
L 273.894205 22.318125 
" clip-path="url(#p5b6ad76462)" style="fill: none; stroke: #b0b0b0; stroke-width: 0.8; stroke-linecap: square"/>
     </g>
     <g id="line2d_8">
      <g>
       <use xlink:href="#m16151aa004" x="273.894205" y="288.430125" style="stroke: #000000; stroke-width: 0.8"/>
      </g>
     </g>
     <g id="text_4">
      <!-- 0.6 -->
      <g transform="translate(265.942642 303.028562) scale(0.1 -0.1)">
       <defs>
        <path id="DejaVuSans-36" d="M 2113 2584 
Q 1688 2584 1439 2293 
Q 1191 2003 1191 1497 
Q 1191 994 1439 701 
Q 1688 409 2113 409 
Q 2538 409 2786 701 
Q 3034 994 3034 1497 
Q 3034 2003 2786 2293 
Q 2538 2584 2113 2584 
z
M 3366 4563 
L 3366 3988 
Q 3128 4100 2886 4159 
Q 2644 4219 2406 4219 
Q 1781 4219 1451 3797 
Q 1122 3375 1075 2522 
Q 1259 2794 1537 2939 
Q 1816 3084 2150 3084 
Q 2853 3084 3261 2657 
Q 3669 2231 3669 1497 
Q 3669 778 3244 343 
Q 2819 -91 2113 -91 
Q 1303 -91 875 529 
Q 447 1150 447 2328 
Q 447 3434 972 4092 
Q 1497 4750 2381 4750 
Q 2619 4750 2861 4703 
Q 3103 4656 3366 4563 
z
" transform="scale(0.015625)"/>
       </defs>
       <use xlink:href="#DejaVuSans-30"/>
       <use xlink:href="#DejaVuSans-2e" x="63.623047"/>
       <use xlink:href="#DejaVuSans-36" x="95.410156"/>
      </g>
     </g>
    </g>
    <g id="xtick_5">
     <g id="line2d_9">
      <path d="M 338.825114 288.430125 
L 338.825114 22.318125 
" clip-path="url(#p5b6ad76462)" style="fill: none; stroke: #b0b0b0; stroke-width: 0.8; stroke-linecap: square"/>
     </g>
     <g id="line2d_10">
      <g>
       <use xlink:href="#m16151aa004" x="338.825114" y="288.430125" style="stroke: #000000; stroke-width: 0.8"/>
      </g>
     </g>
     <g id="text_5">
      <!-- 0.8 -->
      <g transform="translate(330.873551 303.028562) scale(0.1 -0.1)">
       <defs>
        <path id="DejaVuSans-38" d="M 2034 2216 
Q 1584 2216 1326 1975 
Q 1069 1734 1069 1313 
Q 1069 891 1326 650 
Q 1584 409 2034 409 
Q 2484 409 2743 651 
Q 3003 894 3003 1313 
Q 3003 1734 2745 1975 
Q 2488 2216 2034 2216 
z
M 1403 2484 
Q 997 2584 770 2862 
Q 544 3141 544 3541 
Q 544 4100 942 4425 
Q 1341 4750 2034 4750 
Q 2731 4750 3128 4425 
Q 3525 4100 3525 3541 
Q 3525 3141 3298 2862 
Q 3072 2584 2669 2484 
Q 3125 2378 3379 2068 
Q 3634 1759 3634 1313 
Q 3634 634 3220 271 
Q 2806 -91 2034 -91 
Q 1263 -91 848 271 
Q 434 634 434 1313 
Q 434 1759 690 2068 
Q 947 2378 1403 2484 
z
M 1172 3481 
Q 1172 3119 1398 2916 
Q 1625 2713 2034 2713 
Q 2441 2713 2670 2916 
Q 2900 3119 2900 3481 
Q 2900 3844 2670 4047 
Q 2441 4250 2034 4250 
Q 1625 4250 1398 4047 
Q 1172 3844 1172 3481 
z
" transform="scale(0.015625)"/>
       </defs>
       <use xlink:href="#DejaVuSans-30"/>
       <use xlink:href="#DejaVuSans-2e" x="63.623047"/>
       <use xlink:href="#DejaVuSans-38" x="95.410156"/>
      </g>
     </g>
    </g>
    <g id="xtick_6">
     <g id="line2d_11">
      <path d="M 403.756023 288.430125 
L 403.756023 22.318125 
" clip-path="url(#p5b6ad76462)" style="fill: none; stroke: #b0b0b0; stroke-width: 0.8; stroke-linecap: square"/>
     </g>
     <g id="line2d_12">
      <g>
       <use xlink:href="#m16151aa004" x="403.756023" y="288.430125" style="stroke: #000000; stroke-width: 0.8"/>
      </g>
     </g>
     <g id="text_6">
      <!-- 1.0 -->
      <g transform="translate(395.80446 303.028562) scale(0.1 -0.1)">
       <defs>
        <path id="DejaVuSans-31" d="M 794 531 
L 1825 531 
L 1825 4091 
L 703 3866 
L 703 4441 
L 1819 4666 
L 2450 4666 
L 2450 531 
L 3481 531 
L 3481 0 
L 794 0 
L 794 531 
z
" transform="scale(0.015625)"/>
       </defs>
       <use xlink:href="#DejaVuSans-31"/>
       <use xlink:href="#DejaVuSans-2e" x="63.623047"/>
       <use xlink:href="#DejaVuSans-30" x="95.410156"/>
      </g>
     </g>
    </g>
    <g id="text_7">
     <!-- r/R -->
     <g transform="translate(234.214687 316.706687) scale(0.1 -0.1)">
      <defs>
       <path id="DejaVuSans-72" d="M 2631 2963 
Q 2534 3019 2420 3045 
Q 2306 3072 2169 3072 
Q 1681 3072 1420 2755 
Q 1159 2438 1159 1844 
L 1159 0 
L 581 0 
L 581 3500 
L 1159 3500 
L 1159 2956 
Q 1341 3275 1631 3429 
Q 1922 3584 2338 3584 
Q 2397 3584 2469 3576 
Q 2541 3569 2628 3553 
L 2631 2963 
z
" transform="scale(0.015625)"/>
       <path id="DejaVuSans-2f" d="M 1625 4666 
L 2156 4666 
L 531 -594 
L 0 -594 
L 1625 4666 
z
" transform="scale(0.015625)"/>
       <path id="DejaVuSans-52" d="M 2841 2188 
Q 3044 2119 3236 1894 
Q 3428 1669 3622 1275 
L 4263 0 
L 3584 0 
L 2988 1197 
Q 2756 1666 2539 1819 
Q 2322 1972 1947 1972 
L 1259 1972 
L 1259 0 
L 628 0 
L 628 4666 
L 2053 4666 
Q 2853 4666 3247 4331 
Q 3641 3997 3641 3322 
Q 3641 2881 3436 2590 
Q 3231 2300 2841 2188 
z
M 1259 4147 
L 1259 2491 
L 2053 2491 
Q 2509 2491 2742 2702 
Q 2975 2913 2975 3322 
Q 2975 3731 2742 3939 
Q 2509 4147 2053 4147 
L 1259 4147 
z
" transform="scale(0.015625)"/>
      </defs>
      <use xlink:href="#DejaVuSans-72"/>
      <use xlink:href="#DejaVuSans-2f" x="41.113281"/>
      <use xlink:href="#DejaVuSans-52" x="74.804688"/>
     </g>
    </g>
   </g>
   <g id="matplotlib.axis_2">
    <g id="ytick_1">
     <g id="line2d_13">
      <path d="M 62.86875 270.16859 
L 419.98875 270.16859 
" clip-path="url(#p5b6ad76462)" style="fill: none; stroke: #b0b0b0; stroke-width: 0.8; stroke-linecap: square"/>
     </g>
     <g id="line2d_14">
      <defs>
       <path id="mfad7ca4c06" d="M 0 0 
L -3.5 0 
" style="stroke: #000000; stroke-width: 0.8"/>
      </defs>
      <g>
       <use xlink:href="#mfad7ca4c06" x="62.86875" y="270.16859" style="stroke: #000000; stroke-width: 0.8"/>
      </g>
     </g>
     <g id="text_8">
      <!-- 0.4800 -->
      <g transform="translate(20.878125 273.967809) scale(0.1 -0.1)">
       <use xlink:href="#DejaVuSans-30"/>
       <use xlink:href="#DejaVuSans-2e" x="63.623047"/>
       <use xlink:href="#DejaVuSans-34" x="95.410156"/>
       <use xlink:href="#DejaVuSans-38" x="159.033203"/>
       <use xlink:href="#DejaVuSans-30" x="222.65625"/>
       <use xlink:href="#DejaVuSans-30" x="286.279297"/>
      </g>
     </g>
    </g>
    <g id="ytick_2">
     <g id="line2d_15">
      <path d="M 62.86875 239.298464 
L 419.98875 239.298464 
" clip-path="url(#p5b6ad76462)" style="fill: none; stroke: #b0b0b0; stroke-width: 0.8; stroke-linecap: square"/>
     </g>
     <g id="line2d_16">
      <g>
       <use xlink:href="#mfad7ca4c06" x="62.86875" y="239.298464" style="stroke: #000000; stroke-width: 0.8"/>
      </g>
     </g>
     <g id="text_9">
      <!-- 0.4825 -->
      <g transform="translate(20.878125 243.097683) scale(0.1 -0.1)">
       <defs>
        <path id="DejaVuSans-35" d="M 691 4666 
L 3169 4666 
L 3169 4134 
L 1269 4134 
L 1269 2991 
Q 1406 3038 1543 3061 
Q 1681 3084 1819 3084 
Q 2600 3084 3056 2656 
Q 3513 2228 3513 1497 
Q 3513 744 3044 326 
Q 2575 -91 1722 -91 
Q 1428 -91 1123 -41 
Q 819 9 494 109 
L 494 744 
Q 775 591 1075 516 
Q 1375 441 1709 441 
Q 2250 441 2565 725 
Q 2881 1009 2881 1497 
Q 2881 1984 2565 2268 
Q 2250 2553 1709 2553 
Q 1456 2553 1204 2497 
Q 953 2441 691 2322 
L 691 4666 
z
" transform="scale(0.015625)"/>
       </defs>
       <use xlink:href="#DejaVuSans-30"/>
       <use xlink:href="#DejaVuSans-2e" x="63.623047"/>
       <use xlink:href="#DejaVuSans-34" x="95.410156"/>
       <use xlink:href="#DejaVuSans-38" x="159.033203"/>
       <use xlink:href="#DejaVuSans-32" x="222.65625"/>
       <use xlink:href="#DejaVuSans-35" x="286.279297"/>
      </g>
     </g>
    </g>
    <g id="ytick_3">
     <g id="line2d_17">
      <path d="M 62.86875 208.428339 
L 419.98875 208.428339 
" clip-path="url(#p5b6ad76462)" style="fill: none; stroke: #b0b0b0; stroke-width: 0.8; stroke-linecap: square"/>
     </g>
     <g id="line2d_18">
      <g>
       <use xlink:href="#mfad7ca4c06" x="62.86875" y="208.428339" style="stroke: #000000; stroke-width: 0.8"/>
      </g>
     </g>
     <g id="text_10">
      <!-- 0.4850 -->
      <g transform="translate(20.878125 212.227557) scale(0.1 -0.1)">
       <use xlink:href="#DejaVuSans-30"/>
       <use xlink:href="#DejaVuSans-2e" x="63.623047"/>
       <use xlink:href="#DejaVuSans-34" x="95.410156"/>
       <use xlink:href="#DejaVuSans-38" x="159.033203"/>
       <use xlink:href="#DejaVuSans-35" x="222.65625"/>
       <use xlink:href="#DejaVuSans-30" x="286.279297"/>
      </g>
     </g>
    </g>
    <g id="ytick_4">
     <g id="line2d_19">
      <path d="M 62.86875 177.558213 
L 419.98875 177.558213 
" clip-path="url(#p5b6ad76462)" style="fill: none; stroke: #b0b0b0; stroke-width: 0.8; stroke-linecap: square"/>
     </g>
     <g id="line2d_20">
      <g>
       <use xlink:href="#mfad7ca4c06" x="62.86875" y="177.558213" style="stroke: #000000; stroke-width: 0.8"/>
      </g>
     </g>
     <g id="text_11">
      <!-- 0.4875 -->
      <g transform="translate(20.878125 181.357432) scale(0.1 -0.1)">
       <defs>
        <path id="DejaVuSans-37" d="M 525 4666 
L 3525 4666 
L 3525 4397 
L 1831 0 
L 1172 0 
L 2766 4134 
L 525 4134 
L 525 4666 
z
" transform="scale(0.015625)"/>
       </defs>
       <use xlink:href="#DejaVuSans-30"/>
       <use xlink:href="#DejaVuSans-2e" x="63.623047"/>
       <use xlink:href="#DejaVuSans-34" x="95.410156"/>
       <use xlink:href="#DejaVuSans-38" x="159.033203"/>
       <use xlink:href="#DejaVuSans-37" x="222.65625"/>
       <use xlink:href="#DejaVuSans-35" x="286.279297"/>
      </g>
     </g>
    </g>
    <g id="ytick_5">
     <g id="line2d_21">
      <path d="M 62.86875 146.688087 
L 419.98875 146.688087 
" clip-path="url(#p5b6ad76462)" style="fill: none; stroke: #b0b0b0; stroke-width: 0.8; stroke-linecap: square"/>
     </g>
     <g id="line2d_22">
      <g>
       <use xlink:href="#mfad7ca4c06" x="62.86875" y="146.688087" style="stroke: #000000; stroke-width: 0.8"/>
      </g>
     </g>
     <g id="text_12">
      <!-- 0.4900 -->
      <g transform="translate(20.878125 150.487306) scale(0.1 -0.1)">
       <defs>
        <path id="DejaVuSans-39" d="M 703 97 
L 703 672 
Q 941 559 1184 500 
Q 1428 441 1663 441 
Q 2288 441 2617 861 
Q 2947 1281 2994 2138 
Q 2813 1869 2534 1725 
Q 2256 1581 1919 1581 
Q 1219 1581 811 2004 
Q 403 2428 403 3163 
Q 403 3881 828 4315 
Q 1253 4750 1959 4750 
Q 2769 4750 3195 4129 
Q 3622 3509 3622 2328 
Q 3622 1225 3098 567 
Q 2575 -91 1691 -91 
Q 1453 -91 1209 -44 
Q 966 3 703 97 
z
M 1959 2075 
Q 2384 2075 2632 2365 
Q 2881 2656 2881 3163 
Q 2881 3666 2632 3958 
Q 2384 4250 1959 4250 
Q 1534 4250 1286 3958 
Q 1038 3666 1038 3163 
Q 1038 2656 1286 2365 
Q 1534 2075 1959 2075 
z
" transform="scale(0.015625)"/>
       </defs>
       <use xlink:href="#DejaVuSans-30"/>
       <use xlink:href="#DejaVuSans-2e" x="63.623047"/>
       <use xlink:href="#DejaVuSans-34" x="95.410156"/>
       <use xlink:href="#DejaVuSans-39" x="159.033203"/>
       <use xlink:href="#DejaVuSans-30" x="222.65625"/>
       <use xlink:href="#DejaVuSans-30" x="286.279297"/>
      </g>
     </g>
    </g>
    <g id="ytick_6">
     <g id="line2d_23">
      <path d="M 62.86875 115.817962 
L 419.98875 115.817962 
" clip-path="url(#p5b6ad76462)" style="fill: none; stroke: #b0b0b0; stroke-width: 0.8; stroke-linecap: square"/>
     </g>
     <g id="line2d_24">
      <g>
       <use xlink:href="#mfad7ca4c06" x="62.86875" y="115.817962" style="stroke: #000000; stroke-width: 0.8"/>
      </g>
     </g>
     <g id="text_13">
      <!-- 0.4925 -->
      <g transform="translate(20.878125 119.61718) scale(0.1 -0.1)">
       <use xlink:href="#DejaVuSans-30"/>
       <use xlink:href="#DejaVuSans-2e" x="63.623047"/>
       <use xlink:href="#DejaVuSans-34" x="95.410156"/>
       <use xlink:href="#DejaVuSans-39" x="159.033203"/>
       <use xlink:href="#DejaVuSans-32" x="222.65625"/>
       <use xlink:href="#DejaVuSans-35" x="286.279297"/>
      </g>
     </g>
    </g>
    <g id="ytick_7">
     <g id="line2d_25">
      <path d="M 62.86875 84.947836 
L 419.98875 84.947836 
" clip-path="url(#p5b6ad76462)" style="fill: none; stroke: #b0b0b0; stroke-width: 0.8; stroke-linecap: square"/>
     </g>
     <g id="line2d_26">
      <g>
       <use xlink:href="#mfad7ca4c06" x="62.86875" y="84.947836" style="stroke: #000000; stroke-width: 0.8"/>
      </g>
     </g>
     <g id="text_14">
      <!-- 0.4950 -->
      <g transform="translate(20.878125 88.747055) scale(0.1 -0.1)">
       <use xlink:href="#DejaVuSans-30"/>
       <use xlink:href="#DejaVuSans-2e" x="63.623047"/>
       <use xlink:href="#DejaVuSans-34" x="95.410156"/>
       <use xlink:href="#DejaVuSans-39" x="159.033203"/>
       <use xlink:href="#DejaVuSans-35" x="222.65625"/>
       <use xlink:href="#DejaVuSans-30" x="286.279297"/>
      </g>
     </g>
    </g>
    <g id="ytick_8">
     <g id="line2d_27">
      <path d="M 62.86875 54.07771 
L 419.98875 54.07771 
" clip-path="url(#p5b6ad76462)" style="fill: none; stroke: #b0b0b0; stroke-width: 0.8; stroke-linecap: square"/>
     </g>
     <g id="line2d_28">
      <g>
       <use xlink:href="#mfad7ca4c06" x="62.86875" y="54.07771" style="stroke: #000000; stroke-width: 0.8"/>
      </g>
     </g>
     <g id="text_15">
      <!-- 0.4975 -->
      <g transform="translate(20.878125 57.876929) scale(0.1 -0.1)">
       <use xlink:href="#DejaVuSans-30"/>
       <use xlink:href="#DejaVuSans-2e" x="63.623047"/>
       <use xlink:href="#DejaVuSans-34" x="95.410156"/>
       <use xlink:href="#DejaVuSans-39" x="159.033203"/>
       <use xlink:href="#DejaVuSans-37" x="222.65625"/>
       <use xlink:href="#DejaVuSans-35" x="286.279297"/>
      </g>
     </g>
    </g>
    <g id="ytick_9">
     <g id="line2d_29">
      <path d="M 62.86875 23.207584 
L 419.98875 23.207584 
" clip-path="url(#p5b6ad76462)" style="fill: none; stroke: #b0b0b0; stroke-width: 0.8; stroke-linecap: square"/>
     </g>
     <g id="line2d_30">
      <g>
       <use xlink:href="#mfad7ca4c06" x="62.86875" y="23.207584" style="stroke: #000000; stroke-width: 0.8"/>
      </g>
     </g>
     <g id="text_16">
      <!-- 0.5000 -->
      <g transform="translate(20.878125 27.006803) scale(0.1 -0.1)">
       <use xlink:href="#DejaVuSans-30"/>
       <use xlink:href="#DejaVuSans-2e" x="63.623047"/>
       <use xlink:href="#DejaVuSans-35" x="95.410156"/>
       <use xlink:href="#DejaVuSans-30" x="159.033203"/>
       <use xlink:href="#DejaVuSans-30" x="222.65625"/>
       <use xlink:href="#DejaVuSans-30" x="286.279297"/>
      </g>
     </g>
    </g>
    <g id="text_17">
     <!-- Lift Coefficient Cl -->
     <g transform="translate(14.798438 198.121) rotate(-90) scale(0.1 -0.1)">
      <defs>
       <path id="DejaVuSans-4c" d="M 628 4666 
L 1259 4666 
L 1259 531 
L 3531 531 
L 3531 0 
L 628 0 
L 628 4666 
z
" transform="scale(0.015625)"/>
       <path id="DejaVuSans-69" d="M 603 3500 
L 1178 3500 
L 1178 0 
L 603 0 
L 603 3500 
z
M 603 4863 
L 1178 4863 
L 1178 4134 
L 603 4134 
L 603 4863 
z
" transform="scale(0.015625)"/>
       <path id="DejaVuSans-66" d="M 2375 4863 
L 2375 4384 
L 1825 4384 
Q 1516 4384 1395 4259 
Q 1275 4134 1275 3809 
L 1275 3500 
L 2222 3500 
L 2222 3053 
L 1275 3053 
L 1275 0 
L 697 0 
L 697 3053 
L 147 3053 
L 147 3500 
L 697 3500 
L 697 3744 
Q 697 4328 969 4595 
Q 1241 4863 1831 4863 
L 2375 4863 
z
" transform="scale(0.015625)"/>
       <path id="DejaVuSans-74" d="M 1172 4494 
L 1172 3500 
L 2356 3500 
L 2356 3053 
L 1172 3053 
L 1172 1153 
Q 1172 725 1289 603 
Q 1406 481 1766 481 
L 2356 481 
L 2356 0 
L 1766 0 
Q 1100 0 847 248 
Q 594 497 594 1153 
L 594 3053 
L 172 3053 
L 172 3500 
L 594 3500 
L 594 4494 
L 1172 4494 
z
" transform="scale(0.015625)"/>
       <path id="DejaVuSans-20" transform="scale(0.015625)"/>
       <path id="DejaVuSans-43" d="M 4122 4306 
L 4122 3641 
Q 3803 3938 3442 4084 
Q 3081 4231 2675 4231 
Q 1875 4231 1450 3742 
Q 1025 3253 1025 2328 
Q 1025 1406 1450 917 
Q 1875 428 2675 428 
Q 3081 428 3442 575 
Q 3803 722 4122 1019 
L 4122 359 
Q 3791 134 3420 21 
Q 3050 -91 2638 -91 
Q 1578 -91 968 557 
Q 359 1206 359 2328 
Q 359 3453 968 4101 
Q 1578 4750 2638 4750 
Q 3056 4750 3426 4639 
Q 3797 4528 4122 4306 
z
" transform="scale(0.015625)"/>
       <path id="DejaVuSans-6f" d="M 1959 3097 
Q 1497 3097 1228 2736 
Q 959 2375 959 1747 
Q 959 1119 1226 758 
Q 1494 397 1959 397 
Q 2419 397 2687 759 
Q 2956 1122 2956 1747 
Q 2956 2369 2687 2733 
Q 2419 3097 1959 3097 
z
M 1959 3584 
Q 2709 3584 3137 3096 
Q 3566 2609 3566 1747 
Q 3566 888 3137 398 
Q 2709 -91 1959 -91 
Q 1206 -91 779 398 
Q 353 888 353 1747 
Q 353 2609 779 3096 
Q 1206 3584 1959 3584 
z
" transform="scale(0.015625)"/>
       <path id="DejaVuSans-65" d="M 3597 1894 
L 3597 1613 
L 953 1613 
Q 991 1019 1311 708 
Q 1631 397 2203 397 
Q 2534 397 2845 478 
Q 3156 559 3463 722 
L 3463 178 
Q 3153 47 2828 -22 
Q 2503 -91 2169 -91 
Q 1331 -91 842 396 
Q 353 884 353 1716 
Q 353 2575 817 3079 
Q 1281 3584 2069 3584 
Q 2775 3584 3186 3129 
Q 3597 2675 3597 1894 
z
M 3022 2063 
Q 3016 2534 2758 2815 
Q 2500 3097 2075 3097 
Q 1594 3097 1305 2825 
Q 1016 2553 972 2059 
L 3022 2063 
z
" transform="scale(0.015625)"/>
       <path id="DejaVuSans-63" d="M 3122 3366 
L 3122 2828 
Q 2878 2963 2633 3030 
Q 2388 3097 2138 3097 
Q 1578 3097 1268 2742 
Q 959 2388 959 1747 
Q 959 1106 1268 751 
Q 1578 397 2138 397 
Q 2388 397 2633 464 
Q 2878 531 3122 666 
L 3122 134 
Q 2881 22 2623 -34 
Q 2366 -91 2075 -91 
Q 1284 -91 818 406 
Q 353 903 353 1747 
Q 353 2603 823 3093 
Q 1294 3584 2113 3584 
Q 2378 3584 2631 3529 
Q 2884 3475 3122 3366 
z
" transform="scale(0.015625)"/>
       <path id="DejaVuSans-6e" d="M 3513 2113 
L 3513 0 
L 2938 0 
L 2938 2094 
Q 2938 2591 2744 2837 
Q 2550 3084 2163 3084 
Q 1697 3084 1428 2787 
Q 1159 2491 1159 1978 
L 1159 0 
L 581 0 
L 581 3500 
L 1159 3500 
L 1159 2956 
Q 1366 3272 1645 3428 
Q 1925 3584 2291 3584 
Q 2894 3584 3203 3211 
Q 3513 2838 3513 2113 
z
" transform="scale(0.015625)"/>
       <path id="DejaVuSans-6c" d="M 603 4863 
L 1178 4863 
L 1178 0 
L 603 0 
L 603 4863 
z
" transform="scale(0.015625)"/>
      </defs>
      <use xlink:href="#DejaVuSans-4c"/>
      <use xlink:href="#DejaVuSans-69" x="55.712891"/>
      <use xlink:href="#DejaVuSans-66" x="83.496094"/>
      <use xlink:href="#DejaVuSans-74" x="116.951172"/>
      <use xlink:href="#DejaVuSans-20" x="156.160156"/>
      <use xlink:href="#DejaVuSans-43" x="187.947266"/>
      <use xlink:href="#DejaVuSans-6f" x="257.771484"/>
      <use xlink:href="#DejaVuSans-65" x="318.953125"/>
      <use xlink:href="#DejaVuSans-66" x="380.476562"/>
      <use xlink:href="#DejaVuSans-66" x="415.681641"/>
      <use xlink:href="#DejaVuSans-69" x="450.886719"/>
      <use xlink:href="#DejaVuSans-63" x="478.669922"/>
      <use xlink:href="#DejaVuSans-69" x="533.650391"/>
      <use xlink:href="#DejaVuSans-65" x="561.433594"/>
      <use xlink:href="#DejaVuSans-6e" x="622.957031"/>
      <use xlink:href="#DejaVuSans-74" x="686.335938"/>
      <use xlink:href="#DejaVuSans-20" x="725.544922"/>
      <use xlink:href="#DejaVuSans-43" x="757.332031"/>
      <use xlink:href="#DejaVuSans-6c" x="827.15625"/>
     </g>
    </g>
   </g>
   <g id="line2d_31">
    <path d="M 79.101477 222.132482 
L 83.518546 230.039118 
L 86.831347 235.578237 
L 91.248416 242.481783 
L 95.665485 248.868576 
L 98.978286 253.271792 
L 102.291088 257.297356 
L 105.603889 260.922778 
L 108.916691 264.141188 
L 112.229492 266.955216 
L 115.542294 269.371601 
L 118.855095 271.400692 
L 122.167897 273.056044 
L 125.480698 274.353409 
L 128.7935 275.309929 
L 132.106301 275.943737 
L 135.419103 276.273617 
L 138.731904 276.318689 
L 142.044705 276.09812 
L 145.357507 275.630875 
L 148.670308 274.935502 
L 151.98311 274.029909 
L 155.295911 272.931403 
L 159.71298 271.194782 
L 164.130049 269.180441 
L 168.547117 266.922404 
L 174.068453 263.803954 
L 179.589789 260.408405 
L 186.215392 256.036182 
L 193.945262 250.623324 
L 203.883667 243.348443 
L 216.030605 234.190955 
L 228.177544 224.748577 
L 244.741551 211.528353 
L 253.575689 204.629877 
L 261.305559 198.904872 
L 276.765299 187.853801 
L 291.120772 177.741083 
L 299.95491 171.790829 
L 308.789047 166.097335 
L 318.727451 159.984569 
L 334.187192 150.80894 
L 349.646932 141.80812 
L 358.481069 136.917865 
L 368.419474 131.698454 
L 380.566412 125.607591 
L 392.713351 119.746594 
L 403.756023 114.649223 
L 403.756023 114.649223 
" clip-path="url(#p5b6ad76462)" style="fill: none; stroke: #1f77b4; stroke-width: 1.5; stroke-linecap: square"/>
   </g>
   <g id="line2d_32">
    <path d="M 79.101477 212.176947 
L 83.518546 221.033624 
L 86.831347 227.246958 
L 90.144149 233.045501 
L 93.45695 238.450747 
L 96.769752 243.508915 
L 100.082553 248.23758 
L 103.395355 252.604262 
L 106.708156 256.575642 
L 110.020958 260.13378 
L 113.333759 263.275655 
L 116.646561 266.006315 
L 119.959362 268.334977 
L 123.272164 270.27375 
L 126.584965 271.83713 
L 129.897767 273.041512 
L 133.210568 273.904491 
L 136.52337 274.444372 
L 139.836171 274.679914 
L 143.148973 274.630038 
L 146.461774 274.313668 
L 149.774576 273.749393 
L 153.087377 272.955355 
L 156.400179 271.949086 
L 159.71298 270.747383 
L 164.130049 268.868552 
L 168.547117 266.70665 
L 172.964186 264.294903 
L 178.485522 260.975186 
L 184.006858 257.367858 
L 190.632461 252.729635 
L 198.362331 246.997398 
L 208.300735 239.300011 
L 218.23914 231.319188 
L 228.177544 223.040467 
L 240.324483 212.610397 
L 250.262887 204.178407 
L 257.992757 197.944632 
L 284.495169 177.083658 
L 293.329307 170.42076 
L 302.163444 164.034853 
L 313.206115 156.378831 
L 337.499993 139.899483 
L 345.229863 134.952623 
L 355.168268 128.874173 
L 367.315206 121.715726 
L 378.357878 115.456687 
L 388.296282 110.085707 
L 403.756023 101.968989 
L 403.756023 101.968989 
" clip-path="url(#p5b6ad76462)" style="fill: none; stroke: #ff7f0e; stroke-width: 1.5; stroke-linecap: square"/>
   </g>
   <g id="line2d_33">
    <path d="M 79.101477 200.107879 
L 82.414279 206.748976 
L 89.039882 220.39421 
L 92.352683 226.636568 
L 95.665485 232.396728 
L 98.978286 237.706311 
L 102.291088 242.620097 
L 105.603889 247.167118 
L 108.916691 251.332519 
L 112.229492 255.092062 
L 115.542294 258.434068 
L 118.855095 261.358374 
L 122.167897 263.872809 
L 125.480698 265.988883 
L 128.7935 267.720675 
L 132.106301 269.083642 
L 135.419103 270.094658 
L 138.731904 270.77152 
L 142.044705 271.132464 
L 145.357507 271.195979 
L 148.670308 270.980525 
L 151.98311 270.504344 
L 155.295911 269.785217 
L 158.608713 268.840649 
L 161.921514 267.687337 
L 165.234316 266.341377 
L 169.651385 264.273567 
L 174.068453 261.924628 
L 178.485522 259.327134 
L 184.006858 255.775321 
L 189.528193 251.936853 
L 196.153796 247.027727 
L 203.883667 240.991437 
L 211.613537 234.69032 
L 219.343407 228.126356 
L 228.177544 220.314292 
L 241.42875 208.207346 
L 249.15862 201.325178 
L 275.661032 178.457281 
L 284.495169 171.016191 
L 293.329307 163.857817 
L 305.476245 154.373238 
L 327.561589 137.339649 
L 336.395726 130.954669 
L 348.542665 122.499644 
L 358.481069 115.80553 
L 367.315206 110.098552 
L 386.087748 98.113682 
L 397.13042 90.629688 
L 403.756023 86.12116 
L 403.756023 86.12116 
" clip-path="url(#p5b6ad76462)" style="fill: none; stroke: #2ca02c; stroke-width: 1.5; stroke-linecap: square"/>
   </g>
   <g id="line2d_34">
    <path d="M 79.101477 193.905151 
L 85.72708 206.793575 
L 91.248416 217.880812 
L 94.561218 224.011149 
L 97.874019 229.637302 
L 101.186821 234.777086 
L 104.499622 239.478406 
L 107.812423 243.780502 
L 111.125225 247.699181 
L 114.438026 251.221719 
L 117.750828 254.337796 
L 121.063629 257.046244 
L 124.376431 259.353068 
L 127.689232 261.269951 
L 131.002034 262.810891 
L 134.314835 263.992013 
L 137.627637 264.830696 
L 140.940438 265.344447 
L 144.25324 265.551357 
L 147.566041 265.469629 
L 150.878843 265.117363 
L 154.191644 264.512381 
L 157.504446 263.672087 
L 160.817247 262.613359 
L 164.130049 261.35247 
L 168.547117 259.383688 
L 172.964186 257.118212 
L 177.381255 254.589216 
L 181.798323 251.829456 
L 187.319659 248.10176 
L 192.840995 244.119556 
L 199.466598 239.07169 
L 206.092201 233.762277 
L 212.717804 228.199232 
L 220.447674 221.407531 
L 229.281811 213.319973 
L 241.42875 202.183012 
L 274.556765 172.849329 
L 283.390902 165.331531 
L 294.433574 156.277952 
L 320.935986 134.882597 
L 330.87439 127.408112 
L 343.021329 118.548659 
L 351.855466 112.347652 
L 376.149344 95.590631 
L 401.547488 77.174308 
L 403.756023 75.630999 
L 403.756023 75.630999 
" clip-path="url(#p5b6ad76462)" style="fill: none; stroke: #d62728; stroke-width: 1.5; stroke-linecap: square"/>
   </g>
   <g id="line2d_35">
    <path d="M 79.101477 193.332519 
L 85.72708 206.054348 
L 92.352683 219.107953 
L 95.665485 225.032798 
L 98.978286 230.456639 
L 102.291088 235.400815 
L 105.603889 239.912859 
L 108.916691 244.026814 
L 112.229492 247.755396 
L 115.542294 251.087418 
L 118.855095 254.015478 
L 122.167897 256.540716 
L 125.480698 258.670474 
L 128.7935 260.417049 
L 132.106301 261.79506 
L 135.419103 262.821192 
L 138.731904 263.512749 
L 142.044705 263.887599 
L 145.357507 263.963879 
L 148.670308 263.759878 
L 151.98311 263.293382 
L 155.295911 262.582102 
L 158.608713 261.64322 
L 161.921514 260.493356 
L 165.234316 259.148499 
L 169.651385 257.078387 
L 174.068453 254.723434 
L 178.485522 252.117651 
L 184.006858 248.556106 
L 189.528193 244.712711 
L 196.153796 239.802476 
L 202.779399 234.608812 
L 209.405002 229.146534 
L 217.134872 222.451869 
L 224.864743 215.462357 
L 240.324483 201.333164 
L 277.869566 168.24732 
L 286.703704 160.889898 
L 315.41465 137.516697 
L 324.248787 130.745551 
L 336.395726 121.761389 
L 346.33413 114.648508 
L 356.272535 107.836505 
L 368.419474 99.511352 
L 376.149344 93.919322 
L 394.921885 80.189969 
L 403.756023 73.976593 
L 403.756023 73.976593 
" clip-path="url(#p5b6ad76462)" style="fill: none; stroke: #9467bd; stroke-width: 1.5; stroke-linecap: square"/>
   </g>
   <g id="line2d_36">
    <path d="M 79.101477 186.519148 
L 83.518546 195.119861 
L 91.248416 209.906952 
L 95.665485 218.251333 
L 98.978286 223.951533 
L 102.291088 229.136697 
L 105.603889 233.828132 
L 108.916691 238.066603 
L 112.229492 241.888293 
L 115.542294 245.313809 
L 118.855095 248.347506 
L 122.167897 250.98629 
L 125.480698 253.23317 
L 128.7935 255.096689 
L 132.106301 256.589061 
L 135.419103 257.725106 
L 138.731904 258.521011 
L 142.044705 258.994758 
L 145.357507 259.162547 
L 148.670308 259.044391 
L 151.98311 258.657195 
L 155.295911 258.018074 
L 158.608713 257.14492 
L 161.921514 256.05346 
L 165.234316 254.760689 
L 169.651385 252.750051 
L 174.068453 250.44534 
L 178.485522 247.880856 
L 182.90259 245.090197 
L 188.423926 241.331029 
L 193.945262 237.308037 
L 199.466598 233.043859 
L 206.092201 227.624401 
L 212.717804 221.900861 
L 220.447674 214.894441 
L 238.115949 198.651594 
L 252.471422 185.660527 
L 267.931162 171.519502 
L 276.765299 163.751903 
L 304.371978 140.091381 
L 312.101848 133.715047 
L 322.040253 125.825349 
L 334.187192 116.445784 
L 343.021329 109.904642 
L 357.376802 99.370329 
L 365.106672 93.336237 
L 382.774947 79.392082 
L 393.817618 71.020849 
L 403.756023 63.730732 
L 403.756023 63.730732 
" clip-path="url(#p5b6ad76462)" style="fill: none; stroke: #8c564b; stroke-width: 1.5; stroke-linecap: square"/>
   </g>
   <g id="line2d_37">
    <path d="M 79.101477 170.228289 
L 84.622813 180.53711 
L 89.039882 188.708534 
L 92.352683 194.389517 
L 96.769752 201.470691 
L 102.291088 209.972956 
L 105.603889 214.735419 
L 108.916691 219.047979 
L 112.229492 222.866201 
L 115.542294 226.212214 
L 118.855095 229.109803 
L 122.167897 231.58166 
L 125.480698 233.651177 
L 128.7935 235.340649 
L 132.106301 236.669251 
L 135.419103 237.654506 
L 138.731904 238.313228 
L 142.044705 238.662115 
L 145.357507 238.717896 
L 148.670308 238.497333 
L 151.98311 238.017069 
L 155.295911 237.293409 
L 158.608713 236.342065 
L 161.921514 235.17791 
L 165.234316 233.814749 
L 169.651385 231.709108 
L 174.068453 229.29763 
L 178.485522 226.604083 
L 182.90259 223.651874 
L 187.319659 220.462608 
L 192.840995 216.172859 
L 199.466598 210.666316 
L 213.822071 198.271966 
L 222.656208 190.462964 
L 230.386078 183.308853 
L 250.262887 164.762663 
L 274.556765 142.476366 
L 282.286635 135.436972 
L 292.225039 126.731845 
L 305.476245 115.403209 
L 315.41465 107.248722 
L 324.248787 99.930707 
L 330.87439 94.088629 
L 351.855466 75.218636 
L 362.898138 65.696234 
L 372.836542 57.432321 
L 380.566412 51.264733 
L 388.296282 45.372841 
L 396.026153 39.760718 
L 403.756023 34.414125 
L 403.756023 34.414125 
" clip-path="url(#p5b6ad76462)" style="fill: none; stroke: #e377c2; stroke-width: 1.5; stroke-linecap: square"/>
   </g>
   <g id="line2d_38">
    <path d="M 79.101477 171.567637 
L 84.622813 182.282585 
L 89.039882 190.678406 
L 92.352683 196.506137 
L 98.978286 207.611656 
L 103.395355 214.679784 
L 106.708156 219.483746 
L 110.020958 223.776211 
L 113.333759 227.57969 
L 116.646561 230.918329 
L 119.959362 233.817278 
L 123.272164 236.303906 
L 126.584965 238.399836 
L 129.897767 240.122573 
L 133.210568 241.487606 
L 136.52337 242.509843 
L 139.836171 243.204358 
L 143.148973 243.586697 
L 146.461774 243.673119 
L 149.774576 243.480377 
L 153.087377 243.025505 
L 156.400179 242.325503 
L 159.71298 241.397008 
L 163.025782 240.255977 
L 166.338583 238.917414 
L 170.755652 236.849095 
L 175.17272 234.482993 
L 179.589789 231.843337 
L 184.006858 228.949156 
L 188.423926 225.819071 
L 193.945262 221.60451 
L 199.466598 217.086906 
L 206.092201 211.338368 
L 228.177544 191.592875 
L 235.907414 184.377786 
L 255.784223 165.660409 
L 291.120772 133.335422 
L 303.267711 122.795948 
L 313.206115 114.383428 
L 324.248787 105.377092 
L 331.978657 98.928144 
L 338.60426 93.063079 
L 356.272535 77.22146 
L 367.315206 67.688269 
L 377.253611 59.395543 
L 386.087748 52.316271 
L 393.817618 46.404212 
L 401.547488 40.768475 
L 403.756023 39.207361 
L 403.756023 39.207361 
" clip-path="url(#p5b6ad76462)" style="fill: none; stroke: #7f7f7f; stroke-width: 1.5; stroke-linecap: square"/>
   </g>
   <g id="line2d_39">
    <path d="M 79.101477 175.388701 
L 87.935615 193.533156 
L 97.874019 212.377289 
L 101.186821 218.338064 
L 104.499622 223.768767 
L 107.812423 228.672562 
L 111.125225 233.075718 
L 114.438026 237.016631 
L 117.750828 240.531498 
L 121.063629 243.642905 
L 124.376431 246.36394 
L 127.689232 248.698691 
L 131.002034 250.652949 
L 134.314835 252.236909 
L 137.627637 253.463436 
L 140.940438 254.347727 
L 144.25324 254.905806 
L 147.566041 255.154777 
L 150.878843 255.111652 
L 154.191644 254.79398 
L 157.504446 254.218691 
L 160.817247 253.40293 
L 164.130049 252.362823 
L 167.44285 251.114708 
L 170.755652 249.674595 
L 175.17272 247.481754 
L 179.589789 245.009922 
L 184.006858 242.292981 
L 189.528193 238.591382 
L 195.049529 234.582364 
L 200.570865 230.287962 
L 206.092201 225.723081 
L 212.717804 219.923992 
L 219.343407 213.820695 
L 241.42875 193.188841 
L 250.262887 184.813099 
L 266.826895 169.005512 
L 276.765299 159.879355 
L 292.225039 145.730814 
L 302.163444 136.670043 
L 310.997581 128.972749 
L 324.248787 117.737129 
L 333.082924 110.516354 
L 346.33413 99.796082 
L 352.959733 94.084287 
L 373.940809 75.700324 
L 384.983481 66.419505 
L 394.921885 58.352163 
L 403.756023 51.47027 
L 403.756023 51.47027 
" clip-path="url(#p5b6ad76462)" style="fill: none; stroke: #bcbd22; stroke-width: 1.5; stroke-linecap: square"/>
   </g>
   <g id="line2d_40">
    <path d="M 79.101477 182.551704 
L 83.518546 191.030337 
L 89.039882 200.972784 
L 97.874019 216.605572 
L 101.186821 221.859946 
L 104.499622 226.60335 
L 107.812423 230.856522 
L 111.125225 234.644444 
L 114.438026 238.000926 
L 117.750828 240.9503 
L 121.063629 243.508841 
L 124.376431 245.688036 
L 127.689232 247.495477 
L 131.002034 248.940504 
L 134.314835 250.035752 
L 137.627637 250.796065 
L 140.940438 251.237582 
L 144.25324 251.377462 
L 147.566041 251.233151 
L 150.878843 250.822347 
L 154.191644 250.162625 
L 157.504446 249.271452 
L 160.817247 248.165699 
L 164.130049 246.862128 
L 168.547117 244.844384 
L 172.964186 242.541073 
L 177.381255 239.98365 
L 181.798323 237.197001 
L 187.319659 233.420547 
L 192.840995 229.342801 
L 198.362331 224.986349 
L 204.987934 219.432732 
L 211.613537 213.574797 
L 234.803147 192.775176 
L 243.637284 184.723747 
L 259.097025 170.555231 
L 269.035429 161.794641 
L 302.163444 133.246513 
L 313.206115 124.334247 
L 324.248787 115.660866 
L 333.082924 109.0019 
L 345.229863 99.876289 
L 351.855466 94.599516 
L 373.940809 76.729753 
L 384.983481 68.192283 
L 394.921885 60.773222 
L 403.756023 54.426997 
L 403.756023 54.426997 
" clip-path="url(#p5b6ad76462)" style="fill: none; stroke: #17becf; stroke-width: 1.5; stroke-linecap: square"/>
   </g>
   <g id="patch_3">
    <path d="M 62.86875 288.430125 
L 62.86875 22.318125 
" style="fill: none; stroke: #000000; stroke-width: 0.8; stroke-linejoin: miter; stroke-linecap: square"/>
   </g>
   <g id="patch_4">
    <path d="M 419.98875 288.430125 
L 419.98875 22.318125 
" style="fill: none; stroke: #000000; stroke-width: 0.8; stroke-linejoin: miter; stroke-linecap: square"/>
   </g>
   <g id="patch_5">
    <path d="M 62.86875 288.430125 
L 419.98875 288.430125 
" style="fill: none; stroke: #000000; stroke-width: 0.8; stroke-linejoin: miter; stroke-linecap: square"/>
   </g>
   <g id="patch_6">
    <path d="M 62.86875 22.318125 
L 419.98875 22.318125 
" style="fill: none; stroke: #000000; stroke-width: 0.8; stroke-linejoin: miter; stroke-linecap: square"/>
   </g>
   <g id="text_18">
    <!-- Lift Coefficient Distribution -->
    <g transform="translate(160.986562 16.318125) scale(0.12 -0.12)">
     <defs>
      <path id="DejaVuSans-44" d="M 1259 4147 
L 1259 519 
L 2022 519 
Q 2988 519 3436 956 
Q 3884 1394 3884 2338 
Q 3884 3275 3436 3711 
Q 2988 4147 2022 4147 
L 1259 4147 
z
M 628 4666 
L 1925 4666 
Q 3281 4666 3915 4102 
Q 4550 3538 4550 2338 
Q 4550 1131 3912 565 
Q 3275 0 1925 0 
L 628 0 
L 628 4666 
z
" transform="scale(0.015625)"/>
      <path id="DejaVuSans-73" d="M 2834 3397 
L 2834 2853 
Q 2591 2978 2328 3040 
Q 2066 3103 1784 3103 
Q 1356 3103 1142 2972 
Q 928 2841 928 2578 
Q 928 2378 1081 2264 
Q 1234 2150 1697 2047 
L 1894 2003 
Q 2506 1872 2764 1633 
Q 3022 1394 3022 966 
Q 3022 478 2636 193 
Q 2250 -91 1575 -91 
Q 1294 -91 989 -36 
Q 684 19 347 128 
L 347 722 
Q 666 556 975 473 
Q 1284 391 1588 391 
Q 1994 391 2212 530 
Q 2431 669 2431 922 
Q 2431 1156 2273 1281 
Q 2116 1406 1581 1522 
L 1381 1569 
Q 847 1681 609 1914 
Q 372 2147 372 2553 
Q 372 3047 722 3315 
Q 1072 3584 1716 3584 
Q 2034 3584 2315 3537 
Q 2597 3491 2834 3397 
z
" transform="scale(0.015625)"/>
      <path id="DejaVuSans-62" d="M 3116 1747 
Q 3116 2381 2855 2742 
Q 2594 3103 2138 3103 
Q 1681 3103 1420 2742 
Q 1159 2381 1159 1747 
Q 1159 1113 1420 752 
Q 1681 391 2138 391 
Q 2594 391 2855 752 
Q 3116 1113 3116 1747 
z
M 1159 2969 
Q 1341 3281 1617 3432 
Q 1894 3584 2278 3584 
Q 2916 3584 3314 3078 
Q 3713 2572 3713 1747 
Q 3713 922 3314 415 
Q 2916 -91 2278 -91 
Q 1894 -91 1617 61 
Q 1341 213 1159 525 
L 1159 0 
L 581 0 
L 581 4863 
L 1159 4863 
L 1159 2969 
z
" transform="scale(0.015625)"/>
      <path id="DejaVuSans-75" d="M 544 1381 
L 544 3500 
L 1119 3500 
L 1119 1403 
Q 1119 906 1312 657 
Q 1506 409 1894 409 
Q 2359 409 2629 706 
Q 2900 1003 2900 1516 
L 2900 3500 
L 3475 3500 
L 3475 0 
L 2900 0 
L 2900 538 
Q 2691 219 2414 64 
Q 2138 -91 1772 -91 
Q 1169 -91 856 284 
Q 544 659 544 1381 
z
M 1991 3584 
L 1991 3584 
z
" transform="scale(0.015625)"/>
     </defs>
     <use xlink:href="#DejaVuSans-4c"/>
     <use xlink:href="#DejaVuSans-69" x="55.712891"/>
     <use xlink:href="#DejaVuSans-66" x="83.496094"/>
     <use xlink:href="#DejaVuSans-74" x="116.951172"/>
     <use xlink:href="#DejaVuSans-20" x="156.160156"/>
     <use xlink:href="#DejaVuSans-43" x="187.947266"/>
     <use xlink:href="#DejaVuSans-6f" x="257.771484"/>
     <use xlink:href="#DejaVuSans-65" x="318.953125"/>
     <use xlink:href="#DejaVuSans-66" x="380.476562"/>
     <use xlink:href="#DejaVuSans-66" x="415.681641"/>
     <use xlink:href="#DejaVuSans-69" x="450.886719"/>
     <use xlink:href="#DejaVuSans-63" x="478.669922"/>
     <use xlink:href="#DejaVuSans-69" x="533.650391"/>
     <use xlink:href="#DejaVuSans-65" x="561.433594"/>
     <use xlink:href="#DejaVuSans-6e" x="622.957031"/>
     <use xlink:href="#DejaVuSans-74" x="686.335938"/>
     <use xlink:href="#DejaVuSans-20" x="725.544922"/>
     <use xlink:href="#DejaVuSans-44" x="757.332031"/>
     <use xlink:href="#DejaVuSans-69" x="834.333984"/>
     <use xlink:href="#DejaVuSans-73" x="862.117188"/>
     <use xlink:href="#DejaVuSans-74" x="914.216797"/>
     <use xlink:href="#DejaVuSans-72" x="953.425781"/>
     <use xlink:href="#DejaVuSans-69" x="994.539062"/>
     <use xlink:href="#DejaVuSans-62" x="1022.322266"/>
     <use xlink:href="#DejaVuSans-75" x="1085.798828"/>
     <use xlink:href="#DejaVuSans-74" x="1149.177734"/>
     <use xlink:href="#DejaVuSans-69" x="1188.386719"/>
     <use xlink:href="#DejaVuSans-6f" x="1216.169922"/>
     <use xlink:href="#DejaVuSans-6e" x="1277.351562"/>
    </g>
   </g>
   <g id="legend_1">
    <g id="patch_7">
     <path d="M 443.67575 151.250906 
L 540.729361 151.250906 
Q 542.395361 151.250906 542.395361 149.584906 
L 542.395361 28.149125 
Q 542.395361 26.483125 540.729361 26.483125 
L 443.67575 26.483125 
Q 442.00975 26.483125 442.00975 28.149125 
L 442.00975 149.584906 
Q 442.00975 151.250906 443.67575 151.250906 
z
" style="fill: #ffffff; opacity: 0.8; stroke: #cccccc; stroke-linejoin: miter"/>
    </g>
    <g id="line2d_41">
     <path d="M 445.34175 33.229123 
L 453.67175 33.229123 
L 462.00175 33.229123 
" style="fill: none; stroke: #1f77b4; stroke-width: 1.5; stroke-linecap: square"/>
    </g>
    <g id="text_19">
     <!-- Altitude 0 ft -->
     <g transform="translate(468.66575 36.144623) scale(0.0833 -0.0833)">
      <defs>
       <path id="DejaVuSans-41" d="M 2188 4044 
L 1331 1722 
L 3047 1722 
L 2188 4044 
z
M 1831 4666 
L 2547 4666 
L 4325 0 
L 3669 0 
L 3244 1197 
L 1141 1197 
L 716 0 
L 50 0 
L 1831 4666 
z
" transform="scale(0.015625)"/>
       <path id="DejaVuSans-64" d="M 2906 2969 
L 2906 4863 
L 3481 4863 
L 3481 0 
L 2906 0 
L 2906 525 
Q 2725 213 2448 61 
Q 2172 -91 1784 -91 
Q 1150 -91 751 415 
Q 353 922 353 1747 
Q 353 2572 751 3078 
Q 1150 3584 1784 3584 
Q 2172 3584 2448 3432 
Q 2725 3281 2906 2969 
z
M 947 1747 
Q 947 1113 1208 752 
Q 1469 391 1925 391 
Q 2381 391 2643 752 
Q 2906 1113 2906 1747 
Q 2906 2381 2643 2742 
Q 2381 3103 1925 3103 
Q 1469 3103 1208 2742 
Q 947 2381 947 1747 
z
" transform="scale(0.015625)"/>
      </defs>
      <use xlink:href="#DejaVuSans-41"/>
      <use xlink:href="#DejaVuSans-6c" x="68.408203"/>
      <use xlink:href="#DejaVuSans-74" x="96.191406"/>
      <use xlink:href="#DejaVuSans-69" x="135.400391"/>
      <use xlink:href="#DejaVuSans-74" x="163.183594"/>
      <use xlink:href="#DejaVuSans-75" x="202.392578"/>
      <use xlink:href="#DejaVuSans-64" x="265.771484"/>
      <use xlink:href="#DejaVuSans-65" x="329.248047"/>
      <use xlink:href="#DejaVuSans-20" x="390.771484"/>
      <use xlink:href="#DejaVuSans-30" x="422.558594"/>
      <use xlink:href="#DejaVuSans-20" x="486.181641"/>
      <use xlink:href="#DejaVuSans-66" x="517.96875"/>
      <use xlink:href="#DejaVuSans-74" x="551.423828"/>
     </g>
    </g>
    <g id="line2d_42">
     <path d="M 445.34175 45.456002 
L 453.67175 45.456002 
L 462.00175 45.456002 
" style="fill: none; stroke: #ff7f0e; stroke-width: 1.5; stroke-linecap: square"/>
    </g>
    <g id="text_20">
     <!-- Altitude 5000 ft -->
     <g transform="translate(468.66575 48.371502) scale(0.0833 -0.0833)">
      <use xlink:href="#DejaVuSans-41"/>
      <use xlink:href="#DejaVuSans-6c" x="68.408203"/>
      <use xlink:href="#DejaVuSans-74" x="96.191406"/>
      <use xlink:href="#DejaVuSans-69" x="135.400391"/>
      <use xlink:href="#DejaVuSans-74" x="163.183594"/>
      <use xlink:href="#DejaVuSans-75" x="202.392578"/>
      <use xlink:href="#DejaVuSans-64" x="265.771484"/>
      <use xlink:href="#DejaVuSans-65" x="329.248047"/>
      <use xlink:href="#DejaVuSans-20" x="390.771484"/>
      <use xlink:href="#DejaVuSans-35" x="422.558594"/>
      <use xlink:href="#DejaVuSans-30" x="486.181641"/>
      <use xlink:href="#DejaVuSans-30" x="549.804688"/>
      <use xlink:href="#DejaVuSans-30" x="613.427734"/>
      <use xlink:href="#DejaVuSans-20" x="677.050781"/>
      <use xlink:href="#DejaVuSans-66" x="708.837891"/>
      <use xlink:href="#DejaVuSans-74" x="742.292969"/>
     </g>
    </g>
    <g id="line2d_43">
     <path d="M 445.34175 57.68288 
L 453.67175 57.68288 
L 462.00175 57.68288 
" style="fill: none; stroke: #2ca02c; stroke-width: 1.5; stroke-linecap: square"/>
    </g>
    <g id="text_21">
     <!-- Altitude 10000 ft -->
     <g transform="translate(468.66575 60.59838) scale(0.0833 -0.0833)">
      <use xlink:href="#DejaVuSans-41"/>
      <use xlink:href="#DejaVuSans-6c" x="68.408203"/>
      <use xlink:href="#DejaVuSans-74" x="96.191406"/>
      <use xlink:href="#DejaVuSans-69" x="135.400391"/>
      <use xlink:href="#DejaVuSans-74" x="163.183594"/>
      <use xlink:href="#DejaVuSans-75" x="202.392578"/>
      <use xlink:href="#DejaVuSans-64" x="265.771484"/>
      <use xlink:href="#DejaVuSans-65" x="329.248047"/>
      <use xlink:href="#DejaVuSans-20" x="390.771484"/>
      <use xlink:href="#DejaVuSans-31" x="422.558594"/>
      <use xlink:href="#DejaVuSans-30" x="486.181641"/>
      <use xlink:href="#DejaVuSans-30" x="549.804688"/>
      <use xlink:href="#DejaVuSans-30" x="613.427734"/>
      <use xlink:href="#DejaVuSans-30" x="677.050781"/>
      <use xlink:href="#DejaVuSans-20" x="740.673828"/>
      <use xlink:href="#DejaVuSans-66" x="772.460938"/>
      <use xlink:href="#DejaVuSans-74" x="805.916016"/>
     </g>
    </g>
    <g id="line2d_44">
     <path d="M 445.34175 69.909758 
L 453.67175 69.909758 
L 462.00175 69.909758 
" style="fill: none; stroke: #d62728; stroke-width: 1.5; stroke-linecap: square"/>
    </g>
    <g id="text_22">
     <!-- Altitude 13000 ft -->
     <g transform="translate(468.66575 72.825258) scale(0.0833 -0.0833)">
      <defs>
       <path id="DejaVuSans-33" d="M 2597 2516 
Q 3050 2419 3304 2112 
Q 3559 1806 3559 1356 
Q 3559 666 3084 287 
Q 2609 -91 1734 -91 
Q 1441 -91 1130 -33 
Q 819 25 488 141 
L 488 750 
Q 750 597 1062 519 
Q 1375 441 1716 441 
Q 2309 441 2620 675 
Q 2931 909 2931 1356 
Q 2931 1769 2642 2001 
Q 2353 2234 1838 2234 
L 1294 2234 
L 1294 2753 
L 1863 2753 
Q 2328 2753 2575 2939 
Q 2822 3125 2822 3475 
Q 2822 3834 2567 4026 
Q 2313 4219 1838 4219 
Q 1578 4219 1281 4162 
Q 984 4106 628 3988 
L 628 4550 
Q 988 4650 1302 4700 
Q 1616 4750 1894 4750 
Q 2613 4750 3031 4423 
Q 3450 4097 3450 3541 
Q 3450 3153 3228 2886 
Q 3006 2619 2597 2516 
z
" transform="scale(0.015625)"/>
      </defs>
      <use xlink:href="#DejaVuSans-41"/>
      <use xlink:href="#DejaVuSans-6c" x="68.408203"/>
      <use xlink:href="#DejaVuSans-74" x="96.191406"/>
      <use xlink:href="#DejaVuSans-69" x="135.400391"/>
      <use xlink:href="#DejaVuSans-74" x="163.183594"/>
      <use xlink:href="#DejaVuSans-75" x="202.392578"/>
      <use xlink:href="#DejaVuSans-64" x="265.771484"/>
      <use xlink:href="#DejaVuSans-65" x="329.248047"/>
      <use xlink:href="#DejaVuSans-20" x="390.771484"/>
      <use xlink:href="#DejaVuSans-31" x="422.558594"/>
      <use xlink:href="#DejaVuSans-33" x="486.181641"/>
      <use xlink:href="#DejaVuSans-30" x="549.804688"/>
      <use xlink:href="#DejaVuSans-30" x="613.427734"/>
      <use xlink:href="#DejaVuSans-30" x="677.050781"/>
      <use xlink:href="#DejaVuSans-20" x="740.673828"/>
      <use xlink:href="#DejaVuSans-66" x="772.460938"/>
      <use xlink:href="#DejaVuSans-74" x="805.916016"/>
     </g>
    </g>
    <g id="line2d_45">
     <path d="M 445.34175 82.136636 
L 453.67175 82.136636 
L 462.00175 82.136636 
" style="fill: none; stroke: #9467bd; stroke-width: 1.5; stroke-linecap: square"/>
    </g>
    <g id="text_23">
     <!-- Altitude 17400 ft -->
     <g transform="translate(468.66575 85.052136) scale(0.0833 -0.0833)">
      <use xlink:href="#DejaVuSans-41"/>
      <use xlink:href="#DejaVuSans-6c" x="68.408203"/>
      <use xlink:href="#DejaVuSans-74" x="96.191406"/>
      <use xlink:href="#DejaVuSans-69" x="135.400391"/>
      <use xlink:href="#DejaVuSans-74" x="163.183594"/>
      <use xlink:href="#DejaVuSans-75" x="202.392578"/>
      <use xlink:href="#DejaVuSans-64" x="265.771484"/>
      <use xlink:href="#DejaVuSans-65" x="329.248047"/>
      <use xlink:href="#DejaVuSans-20" x="390.771484"/>
      <use xlink:href="#DejaVuSans-31" x="422.558594"/>
      <use xlink:href="#DejaVuSans-37" x="486.181641"/>
      <use xlink:href="#DejaVuSans-34" x="549.804688"/>
      <use xlink:href="#DejaVuSans-30" x="613.427734"/>
      <use xlink:href="#DejaVuSans-30" x="677.050781"/>
      <use xlink:href="#DejaVuSans-20" x="740.673828"/>
      <use xlink:href="#DejaVuSans-66" x="772.460938"/>
      <use xlink:href="#DejaVuSans-74" x="805.916016"/>
     </g>
    </g>
    <g id="line2d_46">
     <path d="M 445.34175 94.363514 
L 453.67175 94.363514 
L 462.00175 94.363514 
" style="fill: none; stroke: #8c564b; stroke-width: 1.5; stroke-linecap: square"/>
    </g>
    <g id="text_24">
     <!-- Altitude 20000 ft -->
     <g transform="translate(468.66575 97.279014) scale(0.0833 -0.0833)">
      <use xlink:href="#DejaVuSans-41"/>
      <use xlink:href="#DejaVuSans-6c" x="68.408203"/>
      <use xlink:href="#DejaVuSans-74" x="96.191406"/>
      <use xlink:href="#DejaVuSans-69" x="135.400391"/>
      <use xlink:href="#DejaVuSans-74" x="163.183594"/>
      <use xlink:href="#DejaVuSans-75" x="202.392578"/>
      <use xlink:href="#DejaVuSans-64" x="265.771484"/>
      <use xlink:href="#DejaVuSans-65" x="329.248047"/>
      <use xlink:href="#DejaVuSans-20" x="390.771484"/>
      <use xlink:href="#DejaVuSans-32" x="422.558594"/>
      <use xlink:href="#DejaVuSans-30" x="486.181641"/>
      <use xlink:href="#DejaVuSans-30" x="549.804688"/>
      <use xlink:href="#DejaVuSans-30" x="613.427734"/>
      <use xlink:href="#DejaVuSans-30" x="677.050781"/>
      <use xlink:href="#DejaVuSans-20" x="740.673828"/>
      <use xlink:href="#DejaVuSans-66" x="772.460938"/>
      <use xlink:href="#DejaVuSans-74" x="805.916016"/>
     </g>
    </g>
    <g id="line2d_47">
     <path d="M 445.34175 106.590392 
L 453.67175 106.590392 
L 462.00175 106.590392 
" style="fill: none; stroke: #e377c2; stroke-width: 1.5; stroke-linecap: square"/>
    </g>
    <g id="text_25">
     <!-- Altitude 26000 ft -->
     <g transform="translate(468.66575 109.505892) scale(0.0833 -0.0833)">
      <use xlink:href="#DejaVuSans-41"/>
      <use xlink:href="#DejaVuSans-6c" x="68.408203"/>
      <use xlink:href="#DejaVuSans-74" x="96.191406"/>
      <use xlink:href="#DejaVuSans-69" x="135.400391"/>
      <use xlink:href="#DejaVuSans-74" x="163.183594"/>
      <use xlink:href="#DejaVuSans-75" x="202.392578"/>
      <use xlink:href="#DejaVuSans-64" x="265.771484"/>
      <use xlink:href="#DejaVuSans-65" x="329.248047"/>
      <use xlink:href="#DejaVuSans-20" x="390.771484"/>
      <use xlink:href="#DejaVuSans-32" x="422.558594"/>
      <use xlink:href="#DejaVuSans-36" x="486.181641"/>
      <use xlink:href="#DejaVuSans-30" x="549.804688"/>
      <use xlink:href="#DejaVuSans-30" x="613.427734"/>
      <use xlink:href="#DejaVuSans-30" x="677.050781"/>
      <use xlink:href="#DejaVuSans-20" x="740.673828"/>
      <use xlink:href="#DejaVuSans-66" x="772.460938"/>
      <use xlink:href="#DejaVuSans-74" x="805.916016"/>
     </g>
    </g>
    <g id="line2d_48">
     <path d="M 445.34175 118.81727 
L 453.67175 118.81727 
L 462.00175 118.81727 
" style="fill: none; stroke: #7f7f7f; stroke-width: 1.5; stroke-linecap: square"/>
    </g>
    <g id="text_26">
     <!-- Altitude 30000 ft -->
     <g transform="translate(468.66575 121.73277) scale(0.0833 -0.0833)">
      <use xlink:href="#DejaVuSans-41"/>
      <use xlink:href="#DejaVuSans-6c" x="68.408203"/>
      <use xlink:href="#DejaVuSans-74" x="96.191406"/>
      <use xlink:href="#DejaVuSans-69" x="135.400391"/>
      <use xlink:href="#DejaVuSans-74" x="163.183594"/>
      <use xlink:href="#DejaVuSans-75" x="202.392578"/>
      <use xlink:href="#DejaVuSans-64" x="265.771484"/>
      <use xlink:href="#DejaVuSans-65" x="329.248047"/>
      <use xlink:href="#DejaVuSans-20" x="390.771484"/>
      <use xlink:href="#DejaVuSans-33" x="422.558594"/>
      <use xlink:href="#DejaVuSans-30" x="486.181641"/>
      <use xlink:href="#DejaVuSans-30" x="549.804688"/>
      <use xlink:href="#DejaVuSans-30" x="613.427734"/>
      <use xlink:href="#DejaVuSans-30" x="677.050781"/>
      <use xlink:href="#DejaVuSans-20" x="740.673828"/>
      <use xlink:href="#DejaVuSans-66" x="772.460938"/>
      <use xlink:href="#DejaVuSans-74" x="805.916016"/>
     </g>
    </g>
    <g id="line2d_49">
     <path d="M 445.34175 131.044148 
L 453.67175 131.044148 
L 462.00175 131.044148 
" style="fill: none; stroke: #bcbd22; stroke-width: 1.5; stroke-linecap: square"/>
    </g>
    <g id="text_27">
     <!-- Altitude 35000 ft -->
     <g transform="translate(468.66575 133.959648) scale(0.0833 -0.0833)">
      <use xlink:href="#DejaVuSans-41"/>
      <use xlink:href="#DejaVuSans-6c" x="68.408203"/>
      <use xlink:href="#DejaVuSans-74" x="96.191406"/>
      <use xlink:href="#DejaVuSans-69" x="135.400391"/>
      <use xlink:href="#DejaVuSans-74" x="163.183594"/>
      <use xlink:href="#DejaVuSans-75" x="202.392578"/>
      <use xlink:href="#DejaVuSans-64" x="265.771484"/>
      <use xlink:href="#DejaVuSans-65" x="329.248047"/>
      <use xlink:href="#DejaVuSans-20" x="390.771484"/>
      <use xlink:href="#DejaVuSans-33" x="422.558594"/>
      <use xlink:href="#DejaVuSans-35" x="486.181641"/>
      <use xlink:href="#DejaVuSans-30" x="549.804688"/>
      <use xlink:href="#DejaVuSans-30" x="613.427734"/>
      <use xlink:href="#DejaVuSans-30" x="677.050781"/>
      <use xlink:href="#DejaVuSans-20" x="740.673828"/>
      <use xlink:href="#DejaVuSans-66" x="772.460938"/>
      <use xlink:href="#DejaVuSans-74" x="805.916016"/>
     </g>
    </g>
    <g id="line2d_50">
     <path d="M 445.34175 143.271027 
L 453.67175 143.271027 
L 462.00175 143.271027 
" style="fill: none; stroke: #17becf; stroke-width: 1.5; stroke-linecap: square"/>
    </g>
    <g id="text_28">
     <!-- Altitude 40000 ft -->
     <g transform="translate(468.66575 146.186527) scale(0.0833 -0.0833)">
      <use xlink:href="#DejaVuSans-41"/>
      <use xlink:href="#DejaVuSans-6c" x="68.408203"/>
      <use xlink:href="#DejaVuSans-74" x="96.191406"/>
      <use xlink:href="#DejaVuSans-69" x="135.400391"/>
      <use xlink:href="#DejaVuSans-74" x="163.183594"/>
      <use xlink:href="#DejaVuSans-75" x="202.392578"/>
      <use xlink:href="#DejaVuSans-64" x="265.771484"/>
      <use xlink:href="#DejaVuSans-65" x="329.248047"/>
      <use xlink:href="#DejaVuSans-20" x="390.771484"/>
      <use xlink:href="#DejaVuSans-34" x="422.558594"/>
      <use xlink:href="#DejaVuSans-30" x="486.181641"/>
      <use xlink:href="#DejaVuSans-30" x="549.804688"/>
      <use xlink:href="#DejaVuSans-30" x="613.427734"/>
      <use xlink:href="#DejaVuSans-30" x="677.050781"/>
      <use xlink:href="#DejaVuSans-20" x="740.673828"/>
      <use xlink:href="#DejaVuSans-66" x="772.460938"/>
      <use xlink:href="#DejaVuSans-74" x="805.916016"/>
     </g>
    </g>
   </g>
  </g>
 </g>
 <defs>
  <clipPath id="p5b6ad76462">
   <rect x="62.86875" y="22.318125" width="357.12" height="266.112"/>
  </clipPath>
 </defs>
</svg>
